# xmcd
#
# Track frame offsets:
#	150
#	23782
#	42635
#	65808
#	80880
#	103716
#	118507
#	137149
#	151490
#
# Disc length: 2384 seconds
#
# Revision: 0
# Processed by: cddbd v1.4PL0 Copyright (c) Steve Scherf et al.
# Submitted via: dBpowerAMP V4.0
#
DISCID=81094e09
DTITLE=Henry Smith's Country Dreams - Live And Laughing
DYEAR=1900
DGENRE=Country
TTITLE0=Folsom Prison Blues
TTITLE1=Pardon Me
TTITLE2=That's All Right Mama/Blue Moon Of Kentucky/Act Naturally/Oh Lonesome Me
TTITLE3=Pop A Top
TTITLE4=Aint It Funy
TTITLE5=The Race Is On
TTITLE6=Margaritaville
TTITLE7=Not Counting You
TTITLE8=Nothing Better Once You've Had The Best
EXTD=
EXTT0=
EXTT1=
EXTT2=
EXTT3=
EXTT4=
EXTT5=
EXTT6=
EXTT7=
EXTT8=
PLAYORDER=
